# Blender v2.90.1 OBJ File: 'Button.blend'
# www.blender.org
mtllib Button.mtl
o Plane
v -0.500000 0.055049 0.500000
v 0.500000 0.055049 0.500000
v -0.500000 0.055049 -0.500000
v 0.500000 0.055049 -0.500000
v -0.455072 0.082213 -0.455072
v -0.455072 0.082213 0.455072
v 0.455072 0.082213 0.455072
v 0.455072 0.082213 -0.455072
v 0.000000 0.082213 -0.450000
v -0.427975 0.082213 -0.139058
v -0.264503 0.082213 0.364058
v 0.264503 0.082213 0.364058
v 0.427975 0.082213 -0.139058
v 0.000000 0.182213 -0.180000
v -0.171190 0.182213 -0.055623
v -0.105801 0.182213 0.145623
v 0.105801 0.182213 0.145623
v 0.171190 0.182213 -0.055623
v 0.359499 0.132213 -0.116808
v 0.222183 0.132213 0.305808
v -0.222183 0.132213 0.305808
v -0.359499 0.132213 -0.116808
v 0.000000 0.132213 -0.378000
vt 0.044928 0.044928
vt 0.955072 0.044928
vt 0.955072 0.955072
vt 0.044928 0.955072
vt 0.000000 1.000000
vt 0.000000 0.000000
vt 1.000000 0.000000
vt 1.000000 1.000000
vt 0.000000 0.000000
vt 0.000000 0.000000
vt 0.000000 0.000000
vt 0.000000 0.000000
vt 0.000000 0.000000
vt 0.000000 0.000000
vt 0.000000 0.000000
vt 0.000000 0.000000
vt 0.000000 0.000000
vt 0.000000 0.000000
vt 0.000000 0.000000
vt 0.000000 0.000000
vt 0.000000 0.000000
vt 0.000000 0.000000
vt 0.000000 0.000000
vn 0.0000 1.0000 0.0000
vn -0.5174 0.8557 0.0000
vn 0.0000 0.8557 0.5174
vn 0.5174 0.8557 0.0000
vn 0.0000 0.8557 -0.5174
vn 0.0000 -1.0000 0.0000
vn 0.2834 0.9546 0.0921
vn -0.2834 0.9546 0.0921
vn 0.1751 0.9546 -0.2411
vn 0.0000 0.9546 0.2980
vn -0.1751 0.9546 -0.2411
vn -0.3828 0.7588 -0.5269
vn 0.0000 0.7588 0.6513
vn 0.3828 0.7588 -0.5269
vn -0.6195 0.7588 0.2013
vn 0.6195 0.7588 0.2013
usemtl Material
s off
f 6/1/1 7/2/1 8/3/1 5/4/1
f 6/1/2 5/4/2 3/5/2 1/6/2
f 7/2/3 6/1/3 1/6/3 2/7/3
f 8/3/4 7/2/4 2/7/4 4/8/4
f 5/4/5 8/3/5 4/8/5 3/5/5
usemtl Material.001
f 10/9/6 9/10/6 13/11/6 12/12/6 11/13/6
f 15/14/1 16/15/1 17/16/1 18/17/1 14/18/1
f 20/19/7 19/20/7 18/17/7 17/16/7
f 22/21/8 21/22/8 16/15/8 15/14/8
f 19/20/9 23/23/9 14/18/9 18/17/9
f 21/22/10 20/19/10 17/16/10 16/15/10
f 23/23/11 22/21/11 15/14/11 14/18/11
f 9/10/12 10/9/12 22/21/12 23/23/12
f 11/13/13 12/12/13 20/19/13 21/22/13
f 13/11/14 9/10/14 23/23/14 19/20/14
f 10/9/15 11/13/15 21/22/15 22/21/15
f 12/12/16 13/11/16 19/20/16 20/19/16
